# xmcd CD database file
#
# Track frame offsets:
#	150
#	30488
#	61685
#	91137
#	122006
#	146772
#	172642
#	197589
#	220902
#	251293
#	297135
#
# Disc length: 4347 seconds
#
# Revision: 1
# Processed by: cddbd v1.5.2PL0 Copyright (c) Steve Scherf et al.
# Submitted via: CDex 1.51
#
DISCID=8c10f90b
DTITLE=Ixindamix - Future Raver  {100 % Breakz !!}
DYEAR=2006
DGENRE=Electro
TTITLE0=Future Raver
TTITLE1=When I Believe
TTITLE2=Trumpet Song
TTITLE3=Elf Foes
TTITLE4=Da Guadabop
TTITLE5=Guess Who
TTITLE6=I Am A DJ
TTITLE7=If He Can't Dance
TTITLE8=Cell Break
TTITLE9=The Chinese Tea Dance
TTITLE10=DATA
EXTD=YEAR: 2006
EXTT0=
EXTT1=
EXTT2=
EXTT3=
EXTT4=
EXTT5=
EXTT6=
EXTT7=
EXTT8=
EXTT9=
EXTT10=
PLAYORDER=
